<svg width="32" height="32" viewBox="0 0 32 32" fill="none" xmlns="http://www.w3.org/2000/svg">
<path d="M23.5 16C23.5 20.1421 20.1421 23.5 16 23.5C11.8579 23.5 8.5 20.1421 8.5 16C8.5 11.8579 11.8579 8.5 16 8.5C20.1421 8.5 23.5 11.8579 23.5 16ZM23.5 16C23.5 18.7614 25.1789 21 27.25 21C29.3211 21 31 18.7614 31 16C31 12.1612 29.5355 8.32234 26.6066 5.3934C20.7487 -0.464466 11.2513 -0.464466 5.3934 5.3934C-0.464466 11.2513 -0.464466 20.7487 5.3934 26.6066C11.2513 32.4645 20.7487 32.4645 26.6066 26.6066M23.5 16V9.75" stroke="#0F172A" stroke-width="1.5" stroke-linecap="round" stroke-linejoin="round"/>
</svg>
