<svg width="32" height="32" viewBox="0 0 32 32" fill="none" xmlns="http://www.w3.org/2000/svg">
<path d="M25.9692 27.208C23.6868 24.1958 20.0707 22.25 16 22.25C11.9293 22.25 8.31315 24.1958 6.03077 27.208M25.9692 27.208C29.0558 24.4606 31 20.4573 31 16C31 7.71573 24.2843 1 16 1C7.71573 1 1 7.71573 1 16C1 20.4573 2.94417 24.4606 6.03077 27.208M25.9692 27.208C23.3192 29.5669 19.8269 31 16 31C12.1731 31 8.68084 29.5669 6.03077 27.208M21 12.25C21 15.0114 18.7614 17.25 16 17.25C13.2386 17.25 11 15.0114 11 12.25C11 9.48858 13.2386 7.25 16 7.25C18.7614 7.25 21 9.48858 21 12.25Z" stroke="#0F172A" stroke-width="1.5" stroke-linecap="round" stroke-linejoin="round"/>
</svg>
